<?xml version="1.0" encoding="utf-8"?>
<!-- Generator: Adobe Illustrator 19.2.0, SVG Export Plug-In . SVG Version: 6.00 Build 0)  -->
<svg version="1.1" id="Layer_1" xmlns="http://www.w3.org/2000/svg" xmlns:xlink="http://www.w3.org/1999/xlink" x="0px" y="0px"
	 viewBox="0 0 59 61" style="enable-background:new 0 0 59 61;" xml:space="preserve">
<style type="text/css">
	.st0{clip-path:url(#SVGID_2_);}
	.st1{fill:#FFFFFF;}
	.st2{clip-path:url(#SVGID_4_);}
	.st3{clip-path:url(#SVGID_6_);fill:#444444;}
	.st4{fill:#444444;}
</style>
<g>
	<g>
		<g>
			<defs>
				<circle id="SVGID_1_" cx="31" cy="33" r="28"/>
			</defs>
			<clipPath id="SVGID_2_">
				<use xlink:href="#SVGID_1_"  style="overflow:visible;"/>
			</clipPath>
			<g class="st0">
				<g>
					
						<rect x="16.8" y="7.7" transform="matrix(0.7032 -0.711 0.711 0.7032 -34.156 28.5232)" class="st1" width="0.6" height="94.9"/>
				</g>
				<g>
					
						<rect x="18.5" y="4.9" transform="matrix(0.7032 -0.711 0.711 0.7032 -31.6492 28.9122)" class="st1" width="0.6" height="94.9"/>
				</g>
				<g>
					
						<rect x="20.2" y="2.1" transform="matrix(0.7032 -0.711 0.711 0.7032 -29.1423 29.3013)" class="st1" width="0.6" height="94.9"/>
				</g>
				<g>
					
						<rect x="21.8" y="-0.8" transform="matrix(0.7032 -0.711 0.711 0.7032 -26.6194 29.53)" class="st1" width="0.6" height="94.9"/>
				</g>
				<g>
					
						<rect x="23.5" y="-3.6" transform="matrix(0.7032 -0.7109 0.7109 0.7032 -24.1112 29.9102)" class="st1" width="0.6" height="94.9"/>
				</g>
				<g>
					
						<rect x="25.2" y="-6.4" transform="matrix(0.7032 -0.711 0.711 0.7032 -21.606 30.3078)" class="st1" width="0.6" height="94.9"/>
				</g>
				<g>
					
						<rect x="26.9" y="-9.2" transform="matrix(0.7032 -0.7109 0.7109 0.7032 -19.0986 30.6886)" class="st1" width="0.6" height="94.9"/>
				</g>
				<g>
					
						<rect x="28.5" y="-12" transform="matrix(0.7032 -0.711 0.711 0.7032 -16.6645 30.9976)" class="st1" width="0.6" height="94.9"/>
				</g>
				<g>
					
						<rect x="30.2" y="-14.8" transform="matrix(0.7032 -0.7109 0.7109 0.7032 -14.1581 31.3789)" class="st1" width="0.6" height="94.9"/>
				</g>
				<g>
					
						<rect x="31.9" y="-17.6" transform="matrix(0.7032 -0.711 0.711 0.7032 -11.6508 31.7757)" class="st1" width="0.6" height="94.9"/>
				</g>
				<g>
					
						<rect x="33.5" y="-20.5" transform="matrix(0.7032 -0.7109 0.7109 0.7032 -9.1293 31.9971)" class="st1" width="0.6" height="94.9"/>
				</g>
				<g>
					
						<rect x="35.2" y="-23.3" transform="matrix(0.7032 -0.711 0.711 0.7032 -6.621 32.3935)" class="st1" width="0.6" height="94.9"/>
				</g>
				<g>
					
						<rect x="36.9" y="-26.1" transform="matrix(0.7032 -0.7109 0.7109 0.7032 -4.1168 32.7756)" class="st1" width="0.6" height="94.9"/>
				</g>
				<g>
					
						<rect x="38.5" y="-28.9" transform="matrix(0.7032 -0.711 0.711 0.7032 -1.6795 33.0834)" class="st1" width="0.6" height="94.9"/>
				</g>
				<g>
					
						<rect x="40.2" y="-31.7" transform="matrix(0.7032 -0.711 0.711 0.7032 0.8273 33.4724)" class="st1" width="0.6" height="94.9"/>
				</g>
				<g>
					
						<rect x="41.9" y="-34.5" transform="matrix(0.7032 -0.711 0.711 0.7032 3.3341 33.8614)" class="st1" width="0.6" height="94.9"/>
				</g>
				<g>
					
						<rect x="43.5" y="-37.3" transform="matrix(0.7032 -0.711 0.711 0.7032 5.7689 34.1622)" class="st1" width="0.6" height="94.9"/>
				</g>
			</g>
		</g>
	</g>
</g>
<g>
	<g>
		<g>
			<defs>
				<circle id="SVGID_3_" cx="28" cy="28" r="28"/>
			</defs>
			<clipPath id="SVGID_4_">
				<use xlink:href="#SVGID_3_"  style="overflow:visible;"/>
			</clipPath>
			<g class="st2">
				<g>
					
						<rect x="13.8" y="2.7" transform="matrix(0.7032 -0.711 0.711 0.7032 -31.4915 24.906)" class="st1" width="0.6" height="94.9"/>
				</g>
				<g>
					
						<rect x="15.5" y="-0.1" transform="matrix(0.7032 -0.711 0.711 0.7032 -28.9847 25.2951)" class="st1" width="0.6" height="94.9"/>
				</g>
				<g>
					
						<rect x="17.2" y="-2.9" transform="matrix(0.7032 -0.711 0.711 0.7032 -26.4779 25.6841)" class="st1" width="0.6" height="94.9"/>
				</g>
				<g>
					
						<rect x="18.8" y="-5.8" transform="matrix(0.7032 -0.711 0.711 0.7032 -23.9549 25.9128)" class="st1" width="0.6" height="94.9"/>
				</g>
				<g>
					
						<rect x="20.5" y="-8.6" transform="matrix(0.7032 -0.7109 0.7109 0.7032 -21.4468 26.294)" class="st1" width="0.6" height="94.9"/>
				</g>
				<g>
					
						<rect x="22.2" y="-11.4" transform="matrix(0.7032 -0.711 0.711 0.7032 -18.9415 26.6906)" class="st1" width="0.6" height="94.9"/>
				</g>
				<g>
					
						<rect x="23.9" y="-14.2" transform="matrix(0.7032 -0.7109 0.7109 0.7032 -16.4343 27.0725)" class="st1" width="0.6" height="94.9"/>
				</g>
				<g>
					<rect x="25.5" y="-17" transform="matrix(0.7032 -0.711 0.711 0.7032 -14 27.3805)" class="st1" width="0.6" height="94.9"/>
				</g>
				<g>
					
						<rect x="27.2" y="-19.8" transform="matrix(0.7032 -0.7109 0.7109 0.7032 -11.4938 27.7627)" class="st1" width="0.6" height="94.9"/>
				</g>
				<g>
					
						<rect x="28.9" y="-22.6" transform="matrix(0.7032 -0.711 0.711 0.7032 -8.9864 28.1585)" class="st1" width="0.6" height="94.9"/>
				</g>
				<g>
					
						<rect x="30.5" y="-25.5" transform="matrix(0.7032 -0.7109 0.7109 0.7032 -6.465 28.3809)" class="st1" width="0.6" height="94.9"/>
				</g>
				<g>
					
						<rect x="32.2" y="-28.3" transform="matrix(0.7032 -0.711 0.711 0.7032 -3.9565 28.7763)" class="st1" width="0.6" height="94.9"/>
				</g>
				<g>
					
						<rect x="33.9" y="-31.1" transform="matrix(0.7032 -0.7109 0.7109 0.7032 -1.4525 29.1594)" class="st1" width="0.6" height="94.9"/>
				</g>
				<g>
					
						<rect x="35.5" y="-33.9" transform="matrix(0.7032 -0.711 0.711 0.7032 0.985 29.4662)" class="st1" width="0.6" height="94.9"/>
				</g>
				<g>
					
						<rect x="37.2" y="-36.7" transform="matrix(0.7032 -0.711 0.711 0.7032 3.4918 29.8552)" class="st1" width="0.6" height="94.9"/>
				</g>
				<g>
					
						<rect x="38.9" y="-39.5" transform="matrix(0.7032 -0.711 0.711 0.7032 5.9986 30.2442)" class="st1" width="0.6" height="94.9"/>
				</g>
				<g>
					
						<rect x="40.5" y="-42.3" transform="matrix(0.7032 -0.711 0.711 0.7032 8.4334 30.545)" class="st1" width="0.6" height="94.9"/>
				</g>
			</g>
		</g>
	</g>
</g>
<title>Group 2</title>
<desc>Created with Sketch.</desc>
<g>
	<title>Group 2</title>
	<desc>Created with Sketch.</desc>
	<g>
		<g>
			<g>
				<defs>
					<path id="SVGID_5_" d="M29.6,39v-3c0,1.5-1.9,3.4-5.4,3.4c-2.9,0-5.6-1.3-7.3-3.3c-1.5-1.8-2.5-4.2-2.5-6.8
						c0-5.7,4.2-10.1,9.5-10.1c3.7,0,5.6,1.9,5.7,3.4v-3h5V39H29.6z M29.4,32.2v-5.8C28.3,25,26.6,24,24.6,24c-3,0-5,2.5-5,5.3
						c0,3,2.2,5.3,5.1,5.3C26.7,34.6,28.4,33.6,29.4,32.2z"/>
				</defs>
				<clipPath id="SVGID_6_">
					<use xlink:href="#SVGID_5_"  style="overflow:visible;"/>
				</clipPath>
				<rect x="9.4" y="14.2" class="st3" width="30.2" height="30.2"/>
			</g>
		</g>
	</g>
	<g>
		<g>
			<g>
				<path id="SVGID_7_" class="st4" d="M39.9,35.9c0-2,1.5-3.5,3.5-3.5s3.5,1.6,3.5,3.5s-1.6,3.5-3.5,3.5
					C41.4,39.4,39.9,37.9,39.9,35.9z"/>
			</g>
		</g>
	</g>
</g>
</svg>
