<svg id="Layer_1" data-name="Layer 1" xmlns="http://www.w3.org/2000/svg" xmlns:xlink="http://www.w3.org/1999/xlink" viewBox="0 0 59 59"><defs><style>.cls-1{fill:#444;}.cls-2{clip-path:url(#clip-path);}</style><clipPath id="clip-path"><path class="cls-1" d="M30.6,38V35c0,1.5-1.9,3.4-5.4,3.4a9.66,9.66,0,0,1-7.3-3.3,10.7,10.7,0,0,1-2.5-6.8c0-5.7,4.2-10.1,9.5-10.1,3.7,0,5.6,1.9,5.7,3.4v-3h5V38h-5Zm-0.2-6.8V25.4A6.11,6.11,0,0,0,25.6,23a5.08,5.08,0,0,0-5,5.3,5.11,5.11,0,0,0,5.1,5.3A5.77,5.77,0,0,0,30.4,31.2Z"/></clipPath></defs><title>abrar-logo-op2</title><path class="cls-1" d="M30.6,38V35c0,1.5-1.9,3.4-5.4,3.4a9.66,9.66,0,0,1-7.3-3.3,10.7,10.7,0,0,1-2.5-6.8c0-5.7,4.2-10.1,9.5-10.1,3.7,0,5.6,1.9,5.7,3.4v-3h5V38h-5Zm-0.2-6.8V25.4A6.11,6.11,0,0,0,25.6,23a5.08,5.08,0,0,0-5,5.3,5.11,5.11,0,0,0,5.1,5.3A5.77,5.77,0,0,0,30.4,31.2Z"/><g class="cls-2"><rect class="cls-1" x="10.4" y="13.2" width="30.2" height="30.2"/></g><path id="SVGID" class="cls-1" d="M40.9,34.9a3.42,3.42,0,0,1,3.5-3.5,3.48,3.48,0,0,1,3.5,3.5,3.54,3.54,0,0,1-3.5,3.5A3.42,3.42,0,0,1,40.9,34.9Z"/><path class="cls-1" d="M29.5,5A24.5,24.5,0,1,1,5,29.5,24.53,24.53,0,0,1,29.5,5m0-5A29.5,29.5,0,1,0,59,29.5,29.5,29.5,0,0,0,29.5,0h0Z"/></svg>