<?xml version="1.0" encoding="utf-8"?>
<!-- Generator: Adobe Illustrator 19.2.0, SVG Export Plug-In . SVG Version: 6.00 Build 0)  -->
<svg version="1.1" id="Layer_1" xmlns="http://www.w3.org/2000/svg" xmlns:xlink="http://www.w3.org/1999/xlink" x="0px" y="0px"
	 viewBox="0 0 59 61" style="enable-background:new 0 0 59 61;" xml:space="preserve">
<style type="text/css">
	.st0{clip-path:url(#SVGID_2_);}
	.st1{fill:#FFFFFF;}
	.st2{clip-path:url(#SVGID_4_);}
	.st3{clip-path:url(#SVGID_6_);fill:#F2355B;}
	.st4{fill:#F2355B;}
</style>
<g>
	<g>
		<g>
			<g>
				<defs>
					<circle id="SVGID_1_" cx="31" cy="33" r="28"/>
				</defs>
				<clipPath id="SVGID_2_">
					<use xlink:href="#SVGID_1_"  style="overflow:visible;"/>
				</clipPath>
				<g class="st0">
					<g>
						
							<rect x="16.8" y="7.7" transform="matrix(0.7032 -0.711 0.711 0.7032 -34.1395 28.5118)" class="st1" width="0.6" height="94.9"/>
					</g>
					<g>
						
							<rect x="18.5" y="4.9" transform="matrix(0.7032 -0.711 0.711 0.7032 -31.6488 28.9009)" class="st1" width="0.6" height="94.9"/>
					</g>
					<g>
						
							<rect x="20.2" y="2.1" transform="matrix(0.7032 -0.711 0.711 0.7032 -29.1581 29.2902)" class="st1" width="0.6" height="94.9"/>
					</g>
					<g>
						
							<rect x="21.8" y="-0.8" transform="matrix(0.7032 -0.711 0.711 0.7032 -26.5912 29.5429)" class="st1" width="0.6" height="94.9"/>
					</g>
					<g>
						
							<rect x="23.5" y="-3.6" transform="matrix(0.7032 -0.7109 0.7109 0.7032 -24.0959 29.9246)" class="st1" width="0.6" height="94.9"/>
					</g>
					<g>
						
							<rect x="25.2" y="-6.4" transform="matrix(0.7032 -0.711 0.711 0.7032 -21.6098 30.321)" class="st1" width="0.6" height="94.9"/>
					</g>
					<g>
						
							<rect x="26.9" y="-9.2" transform="matrix(0.7032 -0.7109 0.7109 0.7032 -19.1156 30.7029)" class="st1" width="0.6" height="94.9"/>
					</g>
					<g>
						
							<rect x="28.5" y="-12" transform="matrix(0.7032 -0.711 0.711 0.7032 -16.6585 30.9929)" class="st1" width="0.6" height="94.9"/>
					</g>
					<g>
						
							<rect x="30.2" y="-14.8" transform="matrix(0.7032 -0.7109 0.7109 0.7032 -14.1655 31.3749)" class="st1" width="0.6" height="94.9"/>
					</g>
					<g>
						
							<rect x="31.9" y="-17.6" transform="matrix(0.7032 -0.711 0.711 0.7032 -11.6772 31.7713)" class="st1" width="0.6" height="94.9"/>
					</g>
					<g>
						
							<rect x="33.5" y="-20.5" transform="matrix(0.7032 -0.7109 0.7109 0.7032 -9.109 32.0169)" class="st1" width="0.6" height="94.9"/>
					</g>
					<g>
						
							<rect x="35.2" y="-23.3" transform="matrix(0.7032 -0.711 0.711 0.7032 -6.6196 32.4132)" class="st1" width="0.6" height="94.9"/>
					</g>
					<g>
						
							<rect x="36.9" y="-26.1" transform="matrix(0.7032 -0.7109 0.7109 0.7032 -4.1289 32.7952)" class="st1" width="0.6" height="94.9"/>
					</g>
					<g>
						
							<rect x="38.5" y="-28.9" transform="matrix(0.7032 -0.711 0.711 0.7032 -1.6684 33.0852)" class="st1" width="0.6" height="94.9"/>
					</g>
					<g>
						
							<rect x="40.2" y="-31.7" transform="matrix(0.7032 -0.711 0.711 0.7032 0.8223 33.4743)" class="st1" width="0.6" height="94.9"/>
					</g>
					<g>
						
							<rect x="41.9" y="-34.5" transform="matrix(0.7032 -0.711 0.711 0.7032 3.313 33.8635)" class="st1" width="0.6" height="94.9"/>
					</g>
					<g>
						
							<rect x="43.5" y="-37.3" transform="matrix(0.7032 -0.711 0.711 0.7032 5.7736 34.1464)" class="st1" width="0.6" height="94.9"/>
					</g>
				</g>
			</g>
		</g>
	</g>
</g>
<g>
	<g>
		<g>
			<g>
				<defs>
					<circle id="SVGID_3_" cx="28" cy="28" r="28"/>
				</defs>
				<clipPath id="SVGID_4_">
					<use xlink:href="#SVGID_3_"  style="overflow:visible;"/>
				</clipPath>
				<g class="st2">
					<g>
						
							<rect x="13.8" y="2.7" transform="matrix(0.7032 -0.711 0.711 0.7032 -31.4748 24.8947)" class="st1" width="0.6" height="94.9"/>
					</g>
					<g>
						
							<rect x="15.5" y="-0.1" transform="matrix(0.7032 -0.711 0.711 0.7032 -28.9842 25.2838)" class="st1" width="0.6" height="94.9"/>
					</g>
					<g>
						
							<rect x="17.2" y="-2.9" transform="matrix(0.7032 -0.711 0.711 0.7032 -26.4935 25.673)" class="st1" width="0.6" height="94.9"/>
					</g>
					<g>
						
							<rect x="18.8" y="-5.8" transform="matrix(0.7032 -0.711 0.711 0.7032 -23.9265 25.9257)" class="st1" width="0.6" height="94.9"/>
					</g>
					<g>
						
							<rect x="20.5" y="-8.6" transform="matrix(0.7032 -0.7109 0.7109 0.7032 -21.4317 26.3084)" class="st1" width="0.6" height="94.9"/>
					</g>
					<g>
						
							<rect x="22.2" y="-11.4" transform="matrix(0.7032 -0.711 0.711 0.7032 -18.9451 26.7038)" class="st1" width="0.6" height="94.9"/>
					</g>
					<g>
						
							<rect x="23.9" y="-14.2" transform="matrix(0.7032 -0.7109 0.7109 0.7032 -16.4515 27.0866)" class="st1" width="0.6" height="94.9"/>
					</g>
					<g>
						
							<rect x="25.5" y="-17" transform="matrix(0.7032 -0.711 0.711 0.7032 -13.9939 27.3758)" class="st1" width="0.6" height="94.9"/>
					</g>
					<g>
						
							<rect x="27.2" y="-19.8" transform="matrix(0.7032 -0.7109 0.7109 0.7032 -11.5013 27.7586)" class="st1" width="0.6" height="94.9"/>
					</g>
					<g>
						
							<rect x="28.9" y="-22.6" transform="matrix(0.7032 -0.711 0.711 0.7032 -9.0125 28.1541)" class="st1" width="0.6" height="94.9"/>
					</g>
					<g>
						
							<rect x="30.5" y="-25.5" transform="matrix(0.7032 -0.7109 0.7109 0.7032 -6.4449 28.4006)" class="st1" width="0.6" height="94.9"/>
					</g>
					<g>
						
							<rect x="32.2" y="-28.3" transform="matrix(0.7032 -0.711 0.711 0.7032 -3.9549 28.7961)" class="st1" width="0.6" height="94.9"/>
					</g>
					<g>
						
							<rect x="33.9" y="-31.1" transform="matrix(0.7032 -0.7109 0.7109 0.7032 -1.4647 29.1788)" class="st1" width="0.6" height="94.9"/>
					</g>
					<g>
						
							<rect x="35.5" y="-33.9" transform="matrix(0.7032 -0.711 0.711 0.7032 0.9963 29.4681)" class="st1" width="0.6" height="94.9"/>
					</g>
					<g>
						
							<rect x="37.2" y="-36.7" transform="matrix(0.7032 -0.711 0.711 0.7032 3.4869 29.8572)" class="st1" width="0.6" height="94.9"/>
					</g>
					<g>
						
							<rect x="38.9" y="-39.5" transform="matrix(0.7032 -0.711 0.711 0.7032 5.9776 30.2463)" class="st1" width="0.6" height="94.9"/>
					</g>
					<g>
						
							<rect x="40.5" y="-42.3" transform="matrix(0.7032 -0.711 0.711 0.7032 8.4382 30.5292)" class="st1" width="0.6" height="94.9"/>
					</g>
				</g>
			</g>
		</g>
	</g>
</g>
<title>Group 2</title>
<desc>Created with Sketch.</desc>
<g>
	<title>Group 2</title>
	<desc>Created with Sketch.</desc>
	<g>
		<g>
			<g>
				<g>
					<defs>
						<path id="SVGID_5_" d="M29.6,39v-3c0,1.5-1.9,3.4-5.4,3.4c-2.9,0-5.6-1.3-7.3-3.3c-1.5-1.8-2.5-4.2-2.5-6.8
							c0-5.7,4.2-10.1,9.5-10.1c3.7,0,5.6,1.9,5.7,3.4v-3h5V39H29.6z M29.4,32.2v-5.8C28.3,25,26.6,24,24.6,24c-3,0-5,2.5-5,5.3
							c0,3,2.2,5.3,5.1,5.3C26.7,34.6,28.4,33.6,29.4,32.2z"/>
					</defs>
					<clipPath id="SVGID_6_">
						<use xlink:href="#SVGID_5_"  style="overflow:visible;"/>
					</clipPath>
					<rect x="9.4" y="14.2" class="st3" width="30.2" height="30.2"/>
				</g>
			</g>
		</g>
	</g>
	<g>
		<g>
			<g>
				<path id="SVGID_7_" class="st4" d="M39.9,35.9c0-2,1.5-3.5,3.5-3.5s3.5,1.6,3.5,3.5s-1.6,3.5-3.5,3.5
					C41.4,39.4,39.9,37.9,39.9,35.9z"/>
			</g>
		</g>
	</g>
</g>
</svg>
