<?xml version="1.0" encoding="UTF-8"?>
<svg width="59px" height="59px" viewBox="0 0 59 59" version="1.1" xmlns="http://www.w3.org/2000/svg" xmlns:xlink="http://www.w3.org/1999/xlink">
    <!-- Generator: Sketch 54.1 (76490) - https://sketchapp.com -->
    <title>abrar-logo-op2</title>
    <desc>Created with Sketch.</desc>
    <g id="Page-1" stroke="none" stroke-width="1" fill="none" fill-rule="evenodd">
        <g id="abrar-logo-op2" fill="#262626" fill-rule="nonzero">
            <path d="M30.6,38 L30.6,35 C30.6,36.5 28.7,38.4 25.2,38.4 C22.4037327,38.4084122 19.7410164,37.2047186 17.9,35.1 C16.3012902,33.1930048 15.4172496,30.7884144 15.4,28.3 C15.4,22.6 19.6,18.2 24.9,18.2 C28.6,18.2 30.5,20.1 30.6,21.6 L30.6,18.6 L35.6,18.6 L35.6,38 L30.6,38 L30.6,38 Z M30.4,31.2 L30.4,25.4 C29.2557542,23.9025495 27.4845079,23.0169263 25.6,23 C24.2276381,23.0203202 22.9218961,23.5950867 21.9800501,24.5934435 C21.0382041,25.5918002 20.5404101,26.9287819 20.6,28.3 C20.548424,29.6861332 21.062562,31.0336781 22.0243446,32.0331778 C22.9861273,33.0326774 24.3129087,33.5982447 25.7,33.6 C27.5621578,33.6052912 29.3123997,32.7115506 30.4,31.2 L30.4,31.2 Z" id="Shape"></path>
            <path d="M40.9,34.9 C40.8778636,33.9651318 41.2394995,33.0619734 41.9007364,32.4007364 C42.5619734,31.7394995 43.4651318,31.3778636 44.4,31.4 C45.3298904,31.3946403 46.2232466,31.7616678 46.8807894,32.4192106 C47.5383322,33.0767534 47.9053597,33.9701096 47.9,34.9 C47.8783803,36.8239703 46.3239703,38.3783803 44.4,38.4 C43.4651318,38.4221364 42.5619734,38.0605005 41.9007364,37.3992636 C41.2394995,36.7380266 40.8778636,35.8348682 40.9,34.9 L40.9,34.9 Z" id="SVGID"></path>
            <path d="M29.5,5 C43.0309764,5 54,15.9690236 54,29.5 C54,43.0309764 43.0309764,54 29.5,54 C15.9690236,54 5,43.0309764 5,29.5 C5.01652981,15.9758764 15.9758764,5.01652981 29.5,5 L29.5,5 Z M29.5,0 C13.2075999,-7.34472246e-15 5.67780898e-15,13.2075999 -3.55271368e-15,29.5 C-1.27832363e-14,45.7924001 13.2075999,59 29.5,59 C45.7924001,59 59,45.7924001 59,29.5 C59,21.6761135 55.8919732,14.1726731 50.35965,8.64034995 C44.8273269,3.10802679 37.3238865,1.36725329e-15 29.5,0 L29.5,0 Z" id="Shape"></path>
        </g>
    </g>
</svg>